<svg fill="#000000" xmlns="http://www.w3.org/2000/svg"  viewBox="0 0 100 100" width="100px" height="100px"><path d="M 31 17.988281 C 23.82 17.988281 18 23.808281 18 30.988281 L 18 69.988281 C 18 77.168281 23.82 82.988281 31 82.988281 L 70 82.988281 C 77.179 82.988281 83 77.168281 83 69.988281 L 83 30.988281 C 83 23.808281 77.18 17.988281 70 17.988281 L 31 17.988281 z M 31 19.988281 L 70 19.988281 C 76.075 19.988281 81 24.913281 81 30.988281 L 81 69.988281 C 81 76.063281 76.075 80.988281 70 80.988281 L 31 80.988281 C 24.925 80.988281 20 76.063281 20 69.988281 L 20 30.988281 C 20 24.913281 24.924 19.988281 31 19.988281 z M 33.837891 22.988281 C 27.852891 22.988281 23 27.839219 23 33.824219 L 23 67.150391 C 23 73.135391 27.852891 77.988281 33.837891 77.988281 L 67.162109 77.988281 C 73.147109 77.988281 78 73.136391 78 67.150391 L 78 48.488281 C 78 48.212281 77.776 47.988281 77.5 47.988281 C 77.224 47.988281 77 48.212281 77 48.488281 L 77 67.150391 C 77 72.583391 72.595109 76.988281 67.162109 76.988281 L 33.837891 76.988281 C 28.404891 76.988281 24 72.583391 24 67.150391 L 24 33.824219 C 24 28.391219 28.404891 23.988281 33.837891 23.988281 L 67.5 23.988281 C 67.776 23.988281 68 23.764281 68 23.488281 C 68 23.212281 67.776 22.988281 67.5 22.988281 L 33.837891 22.988281 z M 36.537109 30.015625 C 36.262512 30.020652 35.984729 30.070342 35.716797 30.169922 C 34.406524 30.657218 32.968862 31.272492 31.855469 32.503906 C 30.742076 33.73532 30 35.565586 30 38.318359 C 30 41.424568 31.611712 44.851332 33.976562 48.306641 C 36.341414 51.761949 39.480984 55.245102 42.628906 58.394531 L 42.634766 58.402344 L 42.642578 58.408203 C 45.795249 61.559366 49.359326 64.692629 52.876953 67.050781 C 56.394581 69.408933 59.860995 71.013672 62.900391 71.013672 C 65.477788 71.013672 67.259533 70.273036 68.486328 69.169922 C 69.713123 68.066808 70.37468 66.64072 70.865234 65.320312 C 71.264526 64.248071 70.883444 63.032845 69.925781 62.396484 C 68.409846 61.388647 65.276006 59.486774 63.216797 58.248047 C 61.854144 57.428193 60.15276 57.432635 58.792969 58.257812 L 58.236328 58.595703 C 57.040846 59.321345 55.539961 59.215361 54.455078 58.328125 C 52.688353 56.883217 50.140797 54.7277 48.224609 52.8125 C 46.344863 50.932753 44.346673 48.496203 43.001953 46.783203 C 42.141189 45.686338 42.045181 44.168763 42.757812 42.966797 L 43.058594 42.458984 A 0.50005 0.50005 0 0 0 43.058594 42.457031 C 43.900116 41.036822 43.874144 39.258921 42.988281 37.865234 C 41.656808 35.77249 39.635772 32.606124 38.640625 31.109375 C 38.322432 30.631148 37.859149 30.297972 37.341797 30.132812 C 37.083121 30.050233 36.811707 30.010598 36.537109 30.015625 z M 36.558594 31.011719 C 36.722785 31.00779 36.883785 31.031281 37.037109 31.080078 C 37.343758 31.177668 37.617786 31.37729 37.808594 31.664062 C 38.789447 33.139314 40.814005 36.311088 42.144531 38.402344 C 42.828666 39.478657 42.849695 40.849475 42.199219 41.947266 L 41.896484 42.457031 C 40.975116 44.011066 41.099608 45.979256 42.214844 47.400391 C 43.572124 49.129391 45.583325 51.585278 47.517578 53.519531 C 49.481391 55.482331 52.042962 57.648361 53.822266 59.103516 C 55.229383 60.25428 57.203342 60.39353 58.755859 59.451172 L 59.3125 59.113281 C 60.358709 58.478425 61.655778 58.47531 62.703125 59.105469 C 64.759482 60.342481 67.90462 62.252189 69.373047 63.228516 C 69.947381 63.610155 70.170443 64.318945 69.927734 64.970703 A 0.50005 0.50005 0 0 0 69.927734 64.972656 C 69.458288 66.236249 68.856112 67.492848 67.816406 68.427734 C 66.776701 69.36262 65.290993 70.013672 62.900391 70.013672 C 60.221786 70.013672 56.870216 68.524551 53.433594 66.220703 C 49.996971 63.916855 46.469939 60.820009 43.349609 57.701172 L 43.341797 57.695312 L 43.335938 57.6875 C 40.213888 54.563898 37.111384 51.115379 34.802734 47.742188 C 32.494085 44.368996 31 41.071151 31 38.318359 C 31 35.741133 31.661549 34.211117 32.597656 33.175781 C 33.533763 32.140445 34.790726 31.581126 36.064453 31.107422 C 36.227021 31.047002 36.394403 31.015648 36.558594 31.011719 z M 77.5 36.566406 C 77.224 36.566406 77 36.790406 77 37.066406 L 77 39.066406 C 77 39.342406 77.224 39.566406 77.5 39.566406 C 77.776 39.566406 78 39.343406 78 39.066406 L 78 37.066406 C 78 36.790406 77.776 36.566406 77.5 36.566406 z M 77.5 40.566406 C 77.224 40.566406 77 40.790406 77 41.066406 L 77 45.066406 C 77 45.342406 77.224 45.566406 77.5 45.566406 C 77.776 45.566406 78 45.343406 78 45.066406 L 78 41.066406 C 78 40.790406 77.776 40.566406 77.5 40.566406 z"/></svg>